<mxfile host="app.diagrams.net" modified="2022-11-21T07:22:12.067Z" agent="5.0 (Windows NT 6.3; WOW64) AppleWebKit/537.36 (KHTML, like Gecko) Chrome/86.0.4240.198 Safari/537.36" etag="OsGPmErssKOTv4nQj6vN" version="20.5.3" type="github">
  <diagram id="MKdxT-kbVQBQOqeZdq-M" name="第 1 页">
    <mxGraphModel dx="3150" dy="2377" grid="1" gridSize="10" guides="1" tooltips="1" connect="1" arrows="1" fold="1" page="1" pageScale="1" pageWidth="827" pageHeight="1169" math="0" shadow="0">
      <root>
        <mxCell id="0" />
        <mxCell id="1" parent="0" />
        <mxCell id="15rNjFRlz3vgorncTaDq-64" value="" style="whiteSpace=wrap;html=1;fontSize=18;fillColor=#d5e8d4;strokeColor=#82b366;" vertex="1" parent="1">
          <mxGeometry x="-40" y="-460" width="1660" height="1600" as="geometry" />
        </mxCell>
        <mxCell id="15rNjFRlz3vgorncTaDq-3" value="" style="verticalLabelPosition=bottom;html=1;verticalAlign=top;strokeWidth=1;align=center;outlineConnect=0;dashed=0;outlineConnect=0;shape=mxgraph.aws3d.end_user;strokeColor=none;fillColor=#777777;aspect=fixed;" vertex="1" parent="1">
          <mxGeometry x="180" y="710" width="50" height="100" as="geometry" />
        </mxCell>
        <mxCell id="15rNjFRlz3vgorncTaDq-8" value="" style="verticalLabelPosition=bottom;html=1;verticalAlign=top;strokeWidth=1;align=center;outlineConnect=0;dashed=0;outlineConnect=0;shape=mxgraph.aws3d.flatEdge2;strokeColor=none;fillColor=#F4B934;aspect=fixed;rotation=356;" vertex="1" parent="1">
          <mxGeometry x="230" y="470" width="280" height="160" as="geometry" />
        </mxCell>
        <mxCell id="15rNjFRlz3vgorncTaDq-4" value="&lt;h1&gt;&lt;font color=&quot;#334eff&quot;&gt;Call&amp;nbsp;&lt;/font&gt;&lt;/h1&gt;&lt;div&gt;&lt;font color=&quot;#334eff&quot;&gt;&lt;br&gt;&lt;/font&gt;&lt;/div&gt;" style="verticalLabelPosition=middle;html=1;verticalAlign=middle;strokeWidth=1;align=right;outlineConnect=0;dashed=0;outlineConnect=0;shape=mxgraph.aws3d.client;aspect=fixed;strokeColor=none;fillColor=#777777;direction=east;labelPosition=left;" vertex="1" parent="1">
          <mxGeometry x="180" y="570" width="90" height="150" as="geometry" />
        </mxCell>
        <mxCell id="15rNjFRlz3vgorncTaDq-7" value="&lt;h1&gt;&lt;font color=&quot;#006600&quot;&gt;Intranet gateway&lt;/font&gt;&lt;/h1&gt;" style="verticalLabelPosition=bottom;html=1;verticalAlign=top;strokeWidth=1;align=center;outlineConnect=0;dashed=0;outlineConnect=0;shape=mxgraph.aws3d.internetGateway;fillColor=#ECECEC;strokeColor=#5E5E5E;aspect=fixed;direction=east;flipH=1;" vertex="1" parent="1">
          <mxGeometry x="470" y="370" width="120" height="100" as="geometry" />
        </mxCell>
        <mxCell id="15rNjFRlz3vgorncTaDq-9" value="&lt;h1&gt;&lt;font color=&quot;#0000ff&quot;&gt;Service&lt;/font&gt;&lt;/h1&gt;" style="verticalLabelPosition=middle;html=1;verticalAlign=middle;strokeWidth=1;align=left;outlineConnect=0;dashed=0;outlineConnect=0;shape=mxgraph.aws3d.dataServer;strokeColor=#5E5E5E;aspect=fixed;labelPosition=right;" vertex="1" parent="1">
          <mxGeometry x="770" y="460" width="171.43" height="150" as="geometry" />
        </mxCell>
        <mxCell id="15rNjFRlz3vgorncTaDq-11" value="" style="verticalLabelPosition=bottom;html=1;verticalAlign=top;strokeWidth=1;align=center;outlineConnect=0;dashed=0;outlineConnect=0;shape=mxgraph.aws3d.flatEdge2;strokeColor=none;fillColor=#F4B934;aspect=fixed;" vertex="1" parent="1">
          <mxGeometry x="570" y="320" width="150" height="90" as="geometry" />
        </mxCell>
        <mxCell id="15rNjFRlz3vgorncTaDq-12" value="&lt;h1&gt;&lt;font color=&quot;#00ff80&quot;&gt;VM Server&lt;/font&gt;&lt;/h1&gt;" style="verticalLabelPosition=middle;html=1;verticalAlign=middle;strokeWidth=1;align=left;outlineConnect=0;dashed=0;outlineConnect=0;shape=mxgraph.aws3d.dataCenter;strokeColor=#5E5E5E;aspect=fixed;labelPosition=right;" vertex="1" parent="1">
          <mxGeometry x="680" y="140" width="170" height="200" as="geometry" />
        </mxCell>
        <mxCell id="15rNjFRlz3vgorncTaDq-13" value="" style="verticalLabelPosition=bottom;html=1;verticalAlign=top;strokeWidth=1;align=center;outlineConnect=0;dashed=0;outlineConnect=0;shape=mxgraph.aws3d.edge2;strokeColor=#000000;aspect=fixed;direction=west;flipV=1;" vertex="1" parent="1">
          <mxGeometry x="730" y="300" width="170" height="200" as="geometry" />
        </mxCell>
        <mxCell id="15rNjFRlz3vgorncTaDq-14" value="" style="verticalLabelPosition=bottom;html=1;verticalAlign=top;strokeWidth=1;align=center;outlineConnect=0;dashed=0;outlineConnect=0;shape=mxgraph.aws3d.oracleDataCenter;fillColor=#ffffff;strokeColor=#5E5E5E;aspect=fixed;" vertex="1" parent="1">
          <mxGeometry x="780" y="770" width="120" height="140" as="geometry" />
        </mxCell>
        <mxCell id="15rNjFRlz3vgorncTaDq-15" value="&lt;h1&gt;Query Machine info&lt;/h1&gt;" style="verticalLabelPosition=middle;html=1;verticalAlign=middle;strokeWidth=1;align=right;outlineConnect=0;dashed=0;outlineConnect=0;shape=mxgraph.aws3d.edge2;strokeColor=#000000;aspect=fixed;direction=west;flipH=0;flipV=1;labelPosition=left;" vertex="1" parent="1">
          <mxGeometry x="740" y="610" width="168.89" height="190" as="geometry" />
        </mxCell>
        <mxCell id="15rNjFRlz3vgorncTaDq-17" value="&lt;h1&gt;&lt;font color=&quot;#ffb570&quot;&gt;Redis&amp;nbsp;&lt;/font&gt;&lt;/h1&gt;" style="verticalLabelPosition=middle;html=1;verticalAlign=middle;strokeWidth=1;align=left;outlineConnect=0;dashed=0;outlineConnect=0;shape=mxgraph.aws3d.rds;fillColor=#ECECEC;strokeColor=#5E5E5E;aspect=fixed;labelPosition=right;" vertex="1" parent="1">
          <mxGeometry x="1160" y="670" width="170" height="180" as="geometry" />
        </mxCell>
        <mxCell id="15rNjFRlz3vgorncTaDq-24" value="&lt;h2&gt;&lt;b&gt;Publish&lt;/b&gt;&lt;/h2&gt;" style="verticalLabelPosition=bottom;html=1;verticalAlign=top;strokeWidth=1;align=left;outlineConnect=0;dashed=0;outlineConnect=0;shape=mxgraph.aws3d.dashedArrowlessEdge2;strokeColor=#2D6195;aspect=fixed;fontSize=18;labelPosition=right;" vertex="1" parent="1">
          <mxGeometry x="280" y="700" width="620" height="350" as="geometry" />
        </mxCell>
        <mxCell id="15rNjFRlz3vgorncTaDq-25" value="" style="verticalLabelPosition=bottom;html=1;verticalAlign=top;strokeWidth=1;align=center;outlineConnect=0;dashed=0;outlineConnect=0;shape=mxgraph.aws3d.dashedEdge2;strokeColor=#2D6195;aspect=fixed;fontSize=18;rotation=347;" vertex="1" parent="1">
          <mxGeometry x="880" y="850" width="290" height="170" as="geometry" />
        </mxCell>
        <mxCell id="15rNjFRlz3vgorncTaDq-30" value="Message" style="verticalLabelPosition=bottom;html=1;verticalAlign=top;strokeWidth=1;align=center;outlineConnect=0;dashed=0;outlineConnect=0;shape=mxgraph.aws3d.email;aspect=fixed;strokeColor=#292929;fontSize=18;fontColor=#00CC66;" vertex="1" parent="1">
          <mxGeometry x="510" y="780" width="40" height="50" as="geometry" />
        </mxCell>
        <mxCell id="15rNjFRlz3vgorncTaDq-31" value="" style="verticalLabelPosition=bottom;html=1;verticalAlign=top;strokeWidth=1;align=center;outlineConnect=0;dashed=0;outlineConnect=0;shape=mxgraph.aws3d.email;aspect=fixed;strokeColor=#292929;fontSize=18;fontColor=#00CC66;" vertex="1" parent="1">
          <mxGeometry x="990" y="570" width="30" height="40" as="geometry" />
        </mxCell>
        <mxCell id="15rNjFRlz3vgorncTaDq-32" value="&lt;font color=&quot;#cc0000&quot;&gt;Message Push GateWay&lt;/font&gt;" style="verticalLabelPosition=bottom;html=1;verticalAlign=top;strokeWidth=1;align=center;outlineConnect=0;dashed=0;outlineConnect=0;shape=mxgraph.aws3d.route53;fillColor=#ECECEC;strokeColor=#5E5E5E;aspect=fixed;fontSize=18;fontColor=#00CC66;" vertex="1" parent="1">
          <mxGeometry x="1010" y="290.83" width="110" height="119.17" as="geometry" />
        </mxCell>
        <mxCell id="15rNjFRlz3vgorncTaDq-33" value="" style="verticalLabelPosition=bottom;html=1;verticalAlign=top;strokeWidth=1;align=center;outlineConnect=0;dashed=0;outlineConnect=0;shape=mxgraph.aws3d.arrowNE;fillColor=#000000;aspect=fixed;fontSize=18;fontColor=#00CC66;rotation=352;" vertex="1" parent="1">
          <mxGeometry x="900.38" y="409.27" width="139.16" height="74.22" as="geometry" />
        </mxCell>
        <mxCell id="15rNjFRlz3vgorncTaDq-34" value="&lt;h1&gt;Receive&amp;nbsp;&lt;/h1&gt;" style="verticalLabelPosition=top;html=1;verticalAlign=bottom;strokeWidth=1;align=center;outlineConnect=0;dashed=0;outlineConnect=0;shape=mxgraph.aws3d.mobile_worker;aspect=fixed;strokeColor=none;fillColor=#777777;fontSize=18;fontColor=#00CC66;labelPosition=center;" vertex="1" parent="1">
          <mxGeometry x="1200" y="200" width="30" height="80" as="geometry" />
        </mxCell>
        <mxCell id="15rNjFRlz3vgorncTaDq-35" value="" style="verticalLabelPosition=bottom;html=1;verticalAlign=top;strokeWidth=1;align=center;outlineConnect=0;dashed=0;outlineConnect=0;shape=mxgraph.aws3d.end_user;strokeColor=none;fillColor=#777777;aspect=fixed;fontSize=18;fontColor=#00CC66;" vertex="1" parent="1">
          <mxGeometry x="1300" y="100" width="70" height="150" as="geometry" />
        </mxCell>
        <mxCell id="15rNjFRlz3vgorncTaDq-36" value="" style="verticalLabelPosition=bottom;html=1;verticalAlign=top;strokeWidth=1;align=center;outlineConnect=0;dashed=0;outlineConnect=0;shape=mxgraph.aws3d.flatEdge2;strokeColor=none;fillColor=#F4B934;aspect=fixed;fontSize=18;fontColor=#00CC66;direction=east;flipV=0;" vertex="1" parent="1">
          <mxGeometry x="1110" y="270" width="90" height="50" as="geometry" />
        </mxCell>
        <mxCell id="15rNjFRlz3vgorncTaDq-37" value="" style="verticalLabelPosition=bottom;html=1;verticalAlign=top;strokeWidth=1;align=center;outlineConnect=0;dashed=0;outlineConnect=0;shape=mxgraph.aws3d.dashedEdge2;strokeColor=#2D6195;aspect=fixed;fontSize=18;fontColor=#00CC66;direction=south;rotation=327;" vertex="1" parent="1">
          <mxGeometry x="1110" y="640" width="40" height="80" as="geometry" />
        </mxCell>
        <mxCell id="15rNjFRlz3vgorncTaDq-26" value="&lt;h2&gt;Subscribe&lt;/h2&gt;" style="verticalLabelPosition=middle;html=1;verticalAlign=middle;strokeWidth=1;align=left;outlineConnect=0;dashed=0;outlineConnect=0;shape=mxgraph.aws3d.dashedArrowlessEdge2;strokeColor=#2D6195;aspect=fixed;fontSize=18;labelPosition=right;fontStyle=1;rotation=2;" vertex="1" parent="1">
          <mxGeometry x="930" y="570" width="150" height="80" as="geometry" />
        </mxCell>
        <mxCell id="15rNjFRlz3vgorncTaDq-41" value="" style="verticalLabelPosition=bottom;html=1;verticalAlign=top;strokeWidth=1;align=center;outlineConnect=0;dashed=0;outlineConnect=0;shape=mxgraph.aws3d.dashedArrowlessEdge2;strokeColor=#2D6195;aspect=fixed;fontSize=18;fontColor=#CC0000;" vertex="1" parent="1">
          <mxGeometry x="920" y="610" width="180" height="100" as="geometry" />
        </mxCell>
        <mxCell id="15rNjFRlz3vgorncTaDq-42" value="" style="verticalLabelPosition=bottom;html=1;verticalAlign=top;strokeWidth=1;align=center;outlineConnect=0;dashed=0;outlineConnect=0;shape=mxgraph.aws3d.dashedEdge2;strokeColor=#2D6195;aspect=fixed;fontSize=18;fontColor=#CC0000;direction=south;rotation=331;" vertex="1" parent="1">
          <mxGeometry x="1115" y="700" width="30" height="50" as="geometry" />
        </mxCell>
        <mxCell id="15rNjFRlz3vgorncTaDq-43" value="" style="verticalLabelPosition=bottom;html=1;verticalAlign=top;strokeWidth=1;align=center;outlineConnect=0;dashed=0;outlineConnect=0;shape=mxgraph.aws3d.dashedEdge2;strokeColor=#2D6195;aspect=fixed;fontSize=18;fontColor=#CC0000;direction=north;rotation=335;" vertex="1" parent="1">
          <mxGeometry x="893.5699999999999" y="581" width="26.43" height="39.64" as="geometry" />
        </mxCell>
        <mxCell id="15rNjFRlz3vgorncTaDq-44" value="Cache Data&lt;br&gt;Log&lt;br&gt;" style="verticalLabelPosition=bottom;html=1;verticalAlign=top;strokeWidth=1;align=center;outlineConnect=0;dashed=0;outlineConnect=0;shape=mxgraph.aws3d.file;aspect=fixed;strokeColor=#2d6195;fillColor=#ffffff;fontSize=18;fontColor=#CC0000;" vertex="1" parent="1">
          <mxGeometry x="970" y="640" width="20" height="50" as="geometry" />
        </mxCell>
        <mxCell id="15rNjFRlz3vgorncTaDq-53" value="" style="verticalLabelPosition=bottom;html=1;verticalAlign=top;strokeWidth=1;align=center;outlineConnect=0;dashed=0;outlineConnect=0;shape=mxgraph.aws3d.dashedArrowlessEdge2;strokeColor=#2D6195;aspect=fixed;fontSize=18;fontColor=#006600;" vertex="1" parent="1">
          <mxGeometry x="830" y="-120" width="450" height="260" as="geometry" />
        </mxCell>
        <mxCell id="15rNjFRlz3vgorncTaDq-54" value="&lt;h1&gt;&lt;font color=&quot;#cc0066&quot;&gt;Handle&lt;/font&gt;&lt;/h1&gt;" style="verticalLabelPosition=middle;html=1;verticalAlign=middle;strokeWidth=1;align=center;outlineConnect=0;dashed=0;outlineConnect=0;shape=mxgraph.aws3d.dashedArrowlessEdge2;strokeColor=#2D6195;aspect=fixed;fontSize=18;fontColor=#006600;direction=south;rotation=21;labelPosition=center;" vertex="1" parent="1">
          <mxGeometry x="170" y="-230" width="510" height="900" as="geometry" />
        </mxCell>
        <mxCell id="15rNjFRlz3vgorncTaDq-55" value="" style="verticalLabelPosition=bottom;html=1;verticalAlign=top;strokeWidth=1;align=center;outlineConnect=0;dashed=0;outlineConnect=0;shape=mxgraph.aws3d.dashedEdge2;strokeColor=#2D6195;aspect=fixed;fontSize=18;fontColor=#006600;direction=south;rotation=-30;" vertex="1" parent="1">
          <mxGeometry x="60" y="510" width="80" height="150" as="geometry" />
        </mxCell>
        <mxCell id="15rNjFRlz3vgorncTaDq-57" value="" style="verticalLabelPosition=bottom;html=1;verticalAlign=top;strokeWidth=1;align=center;outlineConnect=0;dashed=0;outlineConnect=0;shape=mxgraph.aws3d.dashedEdgeDouble2;strokeColor=#2D6195;aspect=fixed;fontSize=18;fontColor=#CC0066;direction=north;rotation=25;" vertex="1" parent="1">
          <mxGeometry x="1240.5" y="190" width="40" height="70" as="geometry" />
        </mxCell>
        <mxCell id="15rNjFRlz3vgorncTaDq-60" value="&lt;h1&gt;&lt;font color=&quot;#1a1a1a&quot;&gt;呼叫手环基本架构图&lt;/font&gt;&lt;/h1&gt;" style="whiteSpace=wrap;html=1;fontSize=18;fontColor=#CC0066;" vertex="1" parent="1">
          <mxGeometry x="610" y="-190" width="370" height="60" as="geometry" />
        </mxCell>
      </root>
    </mxGraphModel>
  </diagram>
</mxfile>
